<?xml version="1.0" encoding="utf-8" standalone="no"?>
<!DOCTYPE svg PUBLIC "-//W3C//DTD SVG 1.1//EN"
  "http://www.w3.org/Graphics/SVG/1.1/DTD/svg11.dtd">
<svg xmlns:xlink="http://www.w3.org/1999/xlink" width="458.907344pt" height="293.21pt" viewBox="0 0 458.907344 293.21" xmlns="http://www.w3.org/2000/svg" version="1.1">
 <metadata>
  <rdf:RDF xmlns:dc="http://purl.org/dc/elements/1.1/" xmlns:cc="http://creativecommons.org/ns#" xmlns:rdf="http://www.w3.org/1999/02/22-rdf-syntax-ns#">
   <cc:Work>
    <dc:type rdf:resource="http://purl.org/dc/dcmitype/StillImage"/>
    <dc:date>2026-04-17T10:58:02.162762</dc:date>
    <dc:format>image/svg+xml</dc:format>
    <dc:creator>
     <cc:Agent>
      <dc:title>Matplotlib v3.10.8, https://matplotlib.org/</dc:title>
     </cc:Agent>
    </dc:creator>
   </cc:Work>
  </rdf:RDF>
 </metadata>
 <defs>
  <style type="text/css">*{stroke-linejoin: round; stroke-linecap: butt}</style>
 </defs>
 <g id="figure_1">
  <g id="patch_1">
   <path d="M 0 293.21 
L 458.907344 293.21 
L 458.907344 0 
L 0 0 
L 0 293.21 
z
" style="fill: none"/>
  </g>
  <g id="axes_1">
   <g id="patch_2">
    <path d="M 45.062344 122.648125 
L 451.707344 122.648125 
L 451.707344 22.318125 
L 45.062344 22.318125 
L 45.062344 122.648125 
z
" style="fill: none"/>
   </g>
   <g id="matplotlib.axis_1">
    <g id="xtick_1">
     <g id="line2d_1">
      <path d="M 63.546207 122.648125 
L 63.546207 22.318125 
" clip-path="url(#pa758372c78)" style="fill: none; stroke: #b0b0b0; stroke-opacity: 0.3; stroke-width: 0.8; stroke-linecap: square"/>
     </g>
     <g id="line2d_2">
      <defs>
       <path id="m9a77bfc47b" d="M 0 0 
L 0 3.5 
" style="stroke: #000000; stroke-width: 0.8"/>
      </defs>
      <g>
       <use xlink:href="#m9a77bfc47b" x="63.546207" y="122.648125" style="stroke: #000000; stroke-width: 0.8"/>
      </g>
     </g>
    </g>
    <g id="xtick_2">
     <g id="line2d_3">
      <path d="M 137.481662 122.648125 
L 137.481662 22.318125 
" clip-path="url(#pa758372c78)" style="fill: none; stroke: #b0b0b0; stroke-opacity: 0.3; stroke-width: 0.8; stroke-linecap: square"/>
     </g>
     <g id="line2d_4">
      <g>
       <use xlink:href="#m9a77bfc47b" x="137.481662" y="122.648125" style="stroke: #000000; stroke-width: 0.8"/>
      </g>
     </g>
    </g>
    <g id="xtick_3">
     <g id="line2d_5">
      <path d="M 211.417116 122.648125 
L 211.417116 22.318125 
" clip-path="url(#pa758372c78)" style="fill: none; stroke: #b0b0b0; stroke-opacity: 0.3; stroke-width: 0.8; stroke-linecap: square"/>
     </g>
     <g id="line2d_6">
      <g>
       <use xlink:href="#m9a77bfc47b" x="211.417116" y="122.648125" style="stroke: #000000; stroke-width: 0.8"/>
      </g>
     </g>
    </g>
    <g id="xtick_4">
     <g id="line2d_7">
      <path d="M 285.352571 122.648125 
L 285.352571 22.318125 
" clip-path="url(#pa758372c78)" style="fill: none; stroke: #b0b0b0; stroke-opacity: 0.3; stroke-width: 0.8; stroke-linecap: square"/>
     </g>
     <g id="line2d_8">
      <g>
       <use xlink:href="#m9a77bfc47b" x="285.352571" y="122.648125" style="stroke: #000000; stroke-width: 0.8"/>
      </g>
     </g>
    </g>
    <g id="xtick_5">
     <g id="line2d_9">
      <path d="M 359.288026 122.648125 
L 359.288026 22.318125 
" clip-path="url(#pa758372c78)" style="fill: none; stroke: #b0b0b0; stroke-opacity: 0.3; stroke-width: 0.8; stroke-linecap: square"/>
     </g>
     <g id="line2d_10">
      <g>
       <use xlink:href="#m9a77bfc47b" x="359.288026" y="122.648125" style="stroke: #000000; stroke-width: 0.8"/>
      </g>
     </g>
    </g>
    <g id="xtick_6">
     <g id="line2d_11">
      <path d="M 433.22348 122.648125 
L 433.22348 22.318125 
" clip-path="url(#pa758372c78)" style="fill: none; stroke: #b0b0b0; stroke-opacity: 0.3; stroke-width: 0.8; stroke-linecap: square"/>
     </g>
     <g id="line2d_12">
      <g>
       <use xlink:href="#m9a77bfc47b" x="433.22348" y="122.648125" style="stroke: #000000; stroke-width: 0.8"/>
      </g>
     </g>
    </g>
   </g>
   <g id="matplotlib.axis_2">
    <g id="ytick_1">
     <g id="line2d_13">
      <path d="M 45.062344 118.088384 
L 451.707344 118.088384 
" clip-path="url(#pa758372c78)" style="fill: none; stroke: #b0b0b0; stroke-opacity: 0.3; stroke-width: 0.8; stroke-linecap: square"/>
     </g>
     <g id="line2d_14">
      <defs>
       <path id="mbf44ede9a3" d="M 0 0 
L -3.5 0 
" style="stroke: #000000; stroke-width: 0.8"/>
      </defs>
      <g>
       <use xlink:href="#mbf44ede9a3" x="45.062344" y="118.088384" style="stroke: #000000; stroke-width: 0.8"/>
      </g>
     </g>
     <g id="text_1">
      <!-- −1 -->
      <g transform="translate(21.845938 122.267524) scale(0.11 -0.11)">
       <defs>
        <path id="DejaVuSans-2212" d="M 678 2272 
L 4684 2272 
L 4684 1741 
L 678 1741 
L 678 2272 
z
" transform="scale(0.015625)"/>
        <path id="DejaVuSans-31" d="M 794 531 
L 1825 531 
L 1825 4091 
L 703 3866 
L 703 4441 
L 1819 4666 
L 2450 4666 
L 2450 531 
L 3481 531 
L 3481 0 
L 794 0 
L 794 531 
z
" transform="scale(0.015625)"/>
       </defs>
       <use xlink:href="#DejaVuSans-2212"/>
       <use xlink:href="#DejaVuSans-31" transform="translate(83.789062 0)"/>
      </g>
     </g>
    </g>
    <g id="ytick_2">
     <g id="line2d_15">
      <path d="M 45.062344 72.483199 
L 451.707344 72.483199 
" clip-path="url(#pa758372c78)" style="fill: none; stroke: #b0b0b0; stroke-opacity: 0.3; stroke-width: 0.8; stroke-linecap: square"/>
     </g>
     <g id="line2d_16">
      <g>
       <use xlink:href="#mbf44ede9a3" x="45.062344" y="72.483199" style="stroke: #000000; stroke-width: 0.8"/>
      </g>
     </g>
     <g id="text_2">
      <!-- 0 -->
      <g transform="translate(31.063594 76.66234) scale(0.11 -0.11)">
       <defs>
        <path id="DejaVuSans-30" d="M 2034 4250 
Q 1547 4250 1301 3770 
Q 1056 3291 1056 2328 
Q 1056 1369 1301 889 
Q 1547 409 2034 409 
Q 2525 409 2770 889 
Q 3016 1369 3016 2328 
Q 3016 3291 2770 3770 
Q 2525 4250 2034 4250 
z
M 2034 4750 
Q 2819 4750 3233 4129 
Q 3647 3509 3647 2328 
Q 3647 1150 3233 529 
Q 2819 -91 2034 -91 
Q 1250 -91 836 529 
Q 422 1150 422 2328 
Q 422 3509 836 4129 
Q 1250 4750 2034 4750 
z
" transform="scale(0.015625)"/>
       </defs>
       <use xlink:href="#DejaVuSans-30"/>
      </g>
     </g>
    </g>
    <g id="ytick_3">
     <g id="line2d_17">
      <path d="M 45.062344 26.878015 
L 451.707344 26.878015 
" clip-path="url(#pa758372c78)" style="fill: none; stroke: #b0b0b0; stroke-opacity: 0.3; stroke-width: 0.8; stroke-linecap: square"/>
     </g>
     <g id="line2d_18">
      <g>
       <use xlink:href="#mbf44ede9a3" x="45.062344" y="26.878015" style="stroke: #000000; stroke-width: 0.8"/>
      </g>
     </g>
     <g id="text_3">
      <!-- 1 -->
      <g transform="translate(31.063594 31.057156) scale(0.11 -0.11)">
       <use xlink:href="#DejaVuSans-31"/>
      </g>
     </g>
    </g>
    <g id="text_4">
     <!-- amplitude -->
     <g transform="translate(15.558281 100.276172) rotate(-90) scale(0.11 -0.11)">
      <defs>
       <path id="DejaVuSans-61" d="M 2194 1759 
Q 1497 1759 1228 1600 
Q 959 1441 959 1056 
Q 959 750 1161 570 
Q 1363 391 1709 391 
Q 2188 391 2477 730 
Q 2766 1069 2766 1631 
L 2766 1759 
L 2194 1759 
z
M 3341 1997 
L 3341 0 
L 2766 0 
L 2766 531 
Q 2569 213 2275 61 
Q 1981 -91 1556 -91 
Q 1019 -91 701 211 
Q 384 513 384 1019 
Q 384 1609 779 1909 
Q 1175 2209 1959 2209 
L 2766 2209 
L 2766 2266 
Q 2766 2663 2505 2880 
Q 2244 3097 1772 3097 
Q 1472 3097 1187 3025 
Q 903 2953 641 2809 
L 641 3341 
Q 956 3463 1253 3523 
Q 1550 3584 1831 3584 
Q 2591 3584 2966 3190 
Q 3341 2797 3341 1997 
z
" transform="scale(0.015625)"/>
       <path id="DejaVuSans-6d" d="M 3328 2828 
Q 3544 3216 3844 3400 
Q 4144 3584 4550 3584 
Q 5097 3584 5394 3201 
Q 5691 2819 5691 2113 
L 5691 0 
L 5113 0 
L 5113 2094 
Q 5113 2597 4934 2840 
Q 4756 3084 4391 3084 
Q 3944 3084 3684 2787 
Q 3425 2491 3425 1978 
L 3425 0 
L 2847 0 
L 2847 2094 
Q 2847 2600 2669 2842 
Q 2491 3084 2119 3084 
Q 1678 3084 1418 2786 
Q 1159 2488 1159 1978 
L 1159 0 
L 581 0 
L 581 3500 
L 1159 3500 
L 1159 2956 
Q 1356 3278 1631 3431 
Q 1906 3584 2284 3584 
Q 2666 3584 2933 3390 
Q 3200 3197 3328 2828 
z
" transform="scale(0.015625)"/>
       <path id="DejaVuSans-70" d="M 1159 525 
L 1159 -1331 
L 581 -1331 
L 581 3500 
L 1159 3500 
L 1159 2969 
Q 1341 3281 1617 3432 
Q 1894 3584 2278 3584 
Q 2916 3584 3314 3078 
Q 3713 2572 3713 1747 
Q 3713 922 3314 415 
Q 2916 -91 2278 -91 
Q 1894 -91 1617 61 
Q 1341 213 1159 525 
z
M 3116 1747 
Q 3116 2381 2855 2742 
Q 2594 3103 2138 3103 
Q 1681 3103 1420 2742 
Q 1159 2381 1159 1747 
Q 1159 1113 1420 752 
Q 1681 391 2138 391 
Q 2594 391 2855 752 
Q 3116 1113 3116 1747 
z
" transform="scale(0.015625)"/>
       <path id="DejaVuSans-6c" d="M 603 4863 
L 1178 4863 
L 1178 0 
L 603 0 
L 603 4863 
z
" transform="scale(0.015625)"/>
       <path id="DejaVuSans-69" d="M 603 3500 
L 1178 3500 
L 1178 0 
L 603 0 
L 603 3500 
z
M 603 4863 
L 1178 4863 
L 1178 4134 
L 603 4134 
L 603 4863 
z
" transform="scale(0.015625)"/>
       <path id="DejaVuSans-74" d="M 1172 4494 
L 1172 3500 
L 2356 3500 
L 2356 3053 
L 1172 3053 
L 1172 1153 
Q 1172 725 1289 603 
Q 1406 481 1766 481 
L 2356 481 
L 2356 0 
L 1766 0 
Q 1100 0 847 248 
Q 594 497 594 1153 
L 594 3053 
L 172 3053 
L 172 3500 
L 594 3500 
L 594 4494 
L 1172 4494 
z
" transform="scale(0.015625)"/>
       <path id="DejaVuSans-75" d="M 544 1381 
L 544 3500 
L 1119 3500 
L 1119 1403 
Q 1119 906 1312 657 
Q 1506 409 1894 409 
Q 2359 409 2629 706 
Q 2900 1003 2900 1516 
L 2900 3500 
L 3475 3500 
L 3475 0 
L 2900 0 
L 2900 538 
Q 2691 219 2414 64 
Q 2138 -91 1772 -91 
Q 1169 -91 856 284 
Q 544 659 544 1381 
z
M 1991 3584 
L 1991 3584 
z
" transform="scale(0.015625)"/>
       <path id="DejaVuSans-64" d="M 2906 2969 
L 2906 4863 
L 3481 4863 
L 3481 0 
L 2906 0 
L 2906 525 
Q 2725 213 2448 61 
Q 2172 -91 1784 -91 
Q 1150 -91 751 415 
Q 353 922 353 1747 
Q 353 2572 751 3078 
Q 1150 3584 1784 3584 
Q 2172 3584 2448 3432 
Q 2725 3281 2906 2969 
z
M 947 1747 
Q 947 1113 1208 752 
Q 1469 391 1925 391 
Q 2381 391 2643 752 
Q 2906 1113 2906 1747 
Q 2906 2381 2643 2742 
Q 2381 3103 1925 3103 
Q 1469 3103 1208 2742 
Q 947 2381 947 1747 
z
" transform="scale(0.015625)"/>
       <path id="DejaVuSans-65" d="M 3597 1894 
L 3597 1613 
L 953 1613 
Q 991 1019 1311 708 
Q 1631 397 2203 397 
Q 2534 397 2845 478 
Q 3156 559 3463 722 
L 3463 178 
Q 3153 47 2828 -22 
Q 2503 -91 2169 -91 
Q 1331 -91 842 396 
Q 353 884 353 1716 
Q 353 2575 817 3079 
Q 1281 3584 2069 3584 
Q 2775 3584 3186 3129 
Q 3597 2675 3597 1894 
z
M 3022 2063 
Q 3016 2534 2758 2815 
Q 2500 3097 2075 3097 
Q 1594 3097 1305 2825 
Q 1016 2553 972 2059 
L 3022 2063 
z
" transform="scale(0.015625)"/>
      </defs>
      <use xlink:href="#DejaVuSans-61"/>
      <use xlink:href="#DejaVuSans-6d" transform="translate(61.279297 0)"/>
      <use xlink:href="#DejaVuSans-70" transform="translate(158.691406 0)"/>
      <use xlink:href="#DejaVuSans-6c" transform="translate(222.167969 0)"/>
      <use xlink:href="#DejaVuSans-69" transform="translate(249.951172 0)"/>
      <use xlink:href="#DejaVuSans-74" transform="translate(277.734375 0)"/>
      <use xlink:href="#DejaVuSans-75" transform="translate(316.943359 0)"/>
      <use xlink:href="#DejaVuSans-64" transform="translate(380.322266 0)"/>
      <use xlink:href="#DejaVuSans-65" transform="translate(443.798828 0)"/>
     </g>
    </g>
   </g>
   <g id="line2d_19">
    <path d="M 63.546207 72.483199 
L 67.616728 69.191938 
L 72.057296 65.308434 
L 76.867911 60.800499 
L 82.788668 54.927732 
L 97.960608 39.681435 
L 102.031129 36.021218 
L 105.361555 33.332646 
L 108.321933 31.242532 
L 110.912264 29.69231 
L 113.132548 28.601782 
L 115.352832 27.757261 
L 117.203069 27.258993 
L 119.053305 26.96216 
L 120.903542 26.879902 
L 122.753779 27.024628 
L 124.604015 27.407821 
L 126.454252 28.039832 
L 128.304488 28.929668 
L 130.154725 30.084768 
L 132.004962 31.510777 
L 133.855198 33.211324 
L 135.705435 35.18779 
L 137.925719 37.922051 
L 140.146003 41.044933 
L 142.366287 44.543396 
L 144.956618 49.07322 
L 147.546949 54.044628 
L 150.507328 60.194509 
L 154.207801 68.427113 
L 160.868653 83.961646 
L 165.30922 94.046047 
L 168.269599 100.271851 
L 170.85993 105.20637 
L 173.080214 108.946474 
L 174.930451 111.65428 
L 176.780687 113.941186 
L 178.260877 115.438661 
L 179.741066 116.618918 
L 181.221255 117.46357 
L 182.331397 117.866978 
L 183.441539 118.0665 
L 184.551681 118.05705 
L 185.661823 117.834458 
L 186.771965 117.395538 
L 187.882107 116.73815 
L 188.992249 115.861255 
L 190.472438 114.350991 
L 191.952627 112.454494 
L 193.432817 110.179404 
L 194.913006 107.537502 
L 196.763243 103.744116 
L 198.613479 99.443696 
L 200.833763 93.686821 
L 203.424094 86.287021 
L 206.75452 76.014679 
L 214.895561 50.544464 
L 217.485893 43.407412 
L 219.336129 38.886445 
L 221.186366 34.960921 
L 222.666555 32.312175 
L 224.146744 30.14762 
L 225.256886 28.865244 
L 226.367028 27.891054 
L 227.47717 27.237202 
L 228.587312 26.913693 
L 229.327407 26.885443 
L 230.067501 27.009162 
L 231.177643 27.482114 
L 232.287785 28.301284 
L 233.397927 29.465696 
L 234.508069 30.971545 
L 235.618211 32.812134 
L 237.0984 35.769866 
L 238.57859 39.274171 
L 240.428826 44.360853 
L 242.279063 50.13921 
L 244.499347 57.816476 
L 247.459725 68.908639 
L 253.75053 92.781893 
L 255.970814 100.273217 
L 257.82105 105.77378 
L 259.30124 109.568897 
L 260.781429 112.742575 
L 261.891571 114.673948 
L 263.001713 116.192774 
L 264.111855 117.278021 
L 264.851949 117.752073 
L 265.592044 118.021806 
L 266.332139 118.084142 
L 267.072233 117.936936 
L 267.812328 117.578998 
L 268.552423 117.010126 
L 269.292517 116.231125 
L 270.402659 114.672913 
L 271.512801 112.656806 
L 272.622943 110.198624 
L 274.103132 106.270554 
L 275.583322 101.65885 
L 277.433558 95.055963 
L 279.653842 86.155331 
L 282.984268 71.621604 
L 287.054789 53.901223 
L 289.275073 45.217497 
L 291.125309 38.936777 
L 292.605498 34.710404 
L 293.71564 32.077682 
L 294.825782 29.949475 
L 295.935924 28.359325 
L 296.676019 27.611829 
L 297.416114 27.122024 
L 298.156208 26.894821 
L 298.896303 26.933639 
L 299.636398 27.240356 
L 300.376492 27.815268 
L 301.116587 28.657062 
L 301.856681 29.762788 
L 302.966823 31.905757 
L 304.076965 34.609422 
L 305.187107 37.843119 
L 306.667297 42.911229 
L 308.147486 48.739216 
L 309.997723 56.885308 
L 312.958101 71.170525 
L 317.028622 90.94829 
L 318.878858 99.034828 
L 320.359047 104.750698 
L 321.839237 109.615962 
L 322.949379 112.61767 
L 324.059521 115.004948 
L 324.799615 116.232869 
L 325.53971 117.157086 
L 326.279805 117.768878 
L 327.019899 118.061651 
L 327.759994 118.031024 
L 328.500089 117.674893 
L 329.240183 116.993492 
L 329.980278 115.989422 
L 330.720372 114.667678 
L 331.830514 112.106235 
L 332.940656 108.882138 
L 334.050798 105.042046 
L 335.530988 99.065282 
L 337.381224 90.456218 
L 339.601508 78.974392 
L 344.782171 51.577818 
L 346.632407 43.115339 
L 348.112597 37.352613 
L 349.222738 33.751323 
L 350.33288 30.849434 
L 351.443022 28.707718 
L 352.183117 27.726284 
L 352.923212 27.114694 
L 353.663306 26.880515 
L 354.403401 27.028215 
L 355.143496 27.559069 
L 355.88359 28.471106 
L 356.623685 29.759071 
L 357.36378 31.414422 
L 358.473921 34.559593 
L 359.584063 38.450772 
L 361.064253 44.678386 
L 362.544442 51.905504 
L 364.764726 64.080542 
L 370.315436 95.525257 
L 371.795625 102.631546 
L 373.275814 108.645634 
L 374.385956 112.293703 
L 375.496098 115.10707 
L 376.236193 116.484593 
L 376.976287 117.444866 
L 377.716382 117.97609 
L 378.456477 118.070493 
L 379.196571 117.72447 
L 379.936666 116.938674 
L 380.676761 115.718073 
L 381.416855 114.071961 
L 382.526997 110.83585 
L 383.637139 106.737469 
L 384.747281 101.860723 
L 386.22747 94.327733 
L 388.077707 83.670322 
L 394.368512 46.086222 
L 395.848701 39.047666 
L 396.958843 34.666056 
L 398.068985 31.179868 
L 398.809079 29.399611 
L 399.549174 28.080522 
L 400.289269 27.23958 
L 401.029363 26.888712 
L 401.399411 26.89935 
L 401.769458 27.034591 
L 402.509553 27.678493 
L 403.249647 28.816208 
L 403.989742 30.438014 
L 404.729836 32.528712 
L 405.839978 36.497478 
L 406.95012 41.382465 
L 408.43031 49.117588 
L 410.280546 60.269182 
L 416.571351 99.913759 
L 418.05154 107.137095 
L 419.161682 111.508844 
L 420.271824 114.842916 
L 421.011919 116.439148 
L 421.752013 117.507579 
L 422.492108 118.032348 
L 422.862155 118.08767 
L 423.232202 118.004082 
L 423.60225 117.781458 
L 424.342344 116.920732 
L 425.082439 115.513035 
L 425.822534 113.57274 
L 426.562628 111.120953 
L 427.67277 106.546476 
L 428.782912 101.004428 
L 430.263102 92.370397 
L 432.113338 80.180325 
L 433.22348 72.483199 
L 433.22348 72.483199 
" clip-path="url(#pa758372c78)" style="fill: none; stroke: #c53030; stroke-linecap: square"/>
   </g>
   <g id="patch_3">
    <path d="M 45.062344 122.648125 
L 45.062344 22.318125 
" style="fill: none; stroke: #000000; stroke-width: 0.8; stroke-linejoin: miter; stroke-linecap: square"/>
   </g>
   <g id="patch_4">
    <path d="M 45.062344 122.648125 
L 451.707344 122.648125 
" style="fill: none; stroke: #000000; stroke-width: 0.8; stroke-linejoin: miter; stroke-linecap: square"/>
   </g>
   <g id="text_5">
    <!-- wrong: sweep outruns its schedule -->
    <g transform="translate(143.932344 16.318125) scale(0.12 -0.12)">
     <defs>
      <path id="DejaVuSans-77" d="M 269 3500 
L 844 3500 
L 1563 769 
L 2278 3500 
L 2956 3500 
L 3675 769 
L 4391 3500 
L 4966 3500 
L 4050 0 
L 3372 0 
L 2619 2869 
L 1863 0 
L 1184 0 
L 269 3500 
z
" transform="scale(0.015625)"/>
      <path id="DejaVuSans-72" d="M 2631 2963 
Q 2534 3019 2420 3045 
Q 2306 3072 2169 3072 
Q 1681 3072 1420 2755 
Q 1159 2438 1159 1844 
L 1159 0 
L 581 0 
L 581 3500 
L 1159 3500 
L 1159 2956 
Q 1341 3275 1631 3429 
Q 1922 3584 2338 3584 
Q 2397 3584 2469 3576 
Q 2541 3569 2628 3553 
L 2631 2963 
z
" transform="scale(0.015625)"/>
      <path id="DejaVuSans-6f" d="M 1959 3097 
Q 1497 3097 1228 2736 
Q 959 2375 959 1747 
Q 959 1119 1226 758 
Q 1494 397 1959 397 
Q 2419 397 2687 759 
Q 2956 1122 2956 1747 
Q 2956 2369 2687 2733 
Q 2419 3097 1959 3097 
z
M 1959 3584 
Q 2709 3584 3137 3096 
Q 3566 2609 3566 1747 
Q 3566 888 3137 398 
Q 2709 -91 1959 -91 
Q 1206 -91 779 398 
Q 353 888 353 1747 
Q 353 2609 779 3096 
Q 1206 3584 1959 3584 
z
" transform="scale(0.015625)"/>
      <path id="DejaVuSans-6e" d="M 3513 2113 
L 3513 0 
L 2938 0 
L 2938 2094 
Q 2938 2591 2744 2837 
Q 2550 3084 2163 3084 
Q 1697 3084 1428 2787 
Q 1159 2491 1159 1978 
L 1159 0 
L 581 0 
L 581 3500 
L 1159 3500 
L 1159 2956 
Q 1366 3272 1645 3428 
Q 1925 3584 2291 3584 
Q 2894 3584 3203 3211 
Q 3513 2838 3513 2113 
z
" transform="scale(0.015625)"/>
      <path id="DejaVuSans-67" d="M 2906 1791 
Q 2906 2416 2648 2759 
Q 2391 3103 1925 3103 
Q 1463 3103 1205 2759 
Q 947 2416 947 1791 
Q 947 1169 1205 825 
Q 1463 481 1925 481 
Q 2391 481 2648 825 
Q 2906 1169 2906 1791 
z
M 3481 434 
Q 3481 -459 3084 -895 
Q 2688 -1331 1869 -1331 
Q 1566 -1331 1297 -1286 
Q 1028 -1241 775 -1147 
L 775 -588 
Q 1028 -725 1275 -790 
Q 1522 -856 1778 -856 
Q 2344 -856 2625 -561 
Q 2906 -266 2906 331 
L 2906 616 
Q 2728 306 2450 153 
Q 2172 0 1784 0 
Q 1141 0 747 490 
Q 353 981 353 1791 
Q 353 2603 747 3093 
Q 1141 3584 1784 3584 
Q 2172 3584 2450 3431 
Q 2728 3278 2906 2969 
L 2906 3500 
L 3481 3500 
L 3481 434 
z
" transform="scale(0.015625)"/>
      <path id="DejaVuSans-3a" d="M 750 794 
L 1409 794 
L 1409 0 
L 750 0 
L 750 794 
z
M 750 3309 
L 1409 3309 
L 1409 2516 
L 750 2516 
L 750 3309 
z
" transform="scale(0.015625)"/>
      <path id="DejaVuSans-20" transform="scale(0.015625)"/>
      <path id="DejaVuSans-73" d="M 2834 3397 
L 2834 2853 
Q 2591 2978 2328 3040 
Q 2066 3103 1784 3103 
Q 1356 3103 1142 2972 
Q 928 2841 928 2578 
Q 928 2378 1081 2264 
Q 1234 2150 1697 2047 
L 1894 2003 
Q 2506 1872 2764 1633 
Q 3022 1394 3022 966 
Q 3022 478 2636 193 
Q 2250 -91 1575 -91 
Q 1294 -91 989 -36 
Q 684 19 347 128 
L 347 722 
Q 666 556 975 473 
Q 1284 391 1588 391 
Q 1994 391 2212 530 
Q 2431 669 2431 922 
Q 2431 1156 2273 1281 
Q 2116 1406 1581 1522 
L 1381 1569 
Q 847 1681 609 1914 
Q 372 2147 372 2553 
Q 372 3047 722 3315 
Q 1072 3584 1716 3584 
Q 2034 3584 2315 3537 
Q 2597 3491 2834 3397 
z
" transform="scale(0.015625)"/>
      <path id="DejaVuSans-63" d="M 3122 3366 
L 3122 2828 
Q 2878 2963 2633 3030 
Q 2388 3097 2138 3097 
Q 1578 3097 1268 2742 
Q 959 2388 959 1747 
Q 959 1106 1268 751 
Q 1578 397 2138 397 
Q 2388 397 2633 464 
Q 2878 531 3122 666 
L 3122 134 
Q 2881 22 2623 -34 
Q 2366 -91 2075 -91 
Q 1284 -91 818 406 
Q 353 903 353 1747 
Q 353 2603 823 3093 
Q 1294 3584 2113 3584 
Q 2378 3584 2631 3529 
Q 2884 3475 3122 3366 
z
" transform="scale(0.015625)"/>
      <path id="DejaVuSans-68" d="M 3513 2113 
L 3513 0 
L 2938 0 
L 2938 2094 
Q 2938 2591 2744 2837 
Q 2550 3084 2163 3084 
Q 1697 3084 1428 2787 
Q 1159 2491 1159 1978 
L 1159 0 
L 581 0 
L 581 4863 
L 1159 4863 
L 1159 2956 
Q 1366 3272 1645 3428 
Q 1925 3584 2291 3584 
Q 2894 3584 3203 3211 
Q 3513 2838 3513 2113 
z
" transform="scale(0.015625)"/>
     </defs>
     <use xlink:href="#DejaVuSans-77"/>
     <use xlink:href="#DejaVuSans-72" transform="translate(81.787109 0)"/>
     <use xlink:href="#DejaVuSans-6f" transform="translate(120.650391 0)"/>
     <use xlink:href="#DejaVuSans-6e" transform="translate(181.832031 0)"/>
     <use xlink:href="#DejaVuSans-67" transform="translate(245.210938 0)"/>
     <use xlink:href="#DejaVuSans-3a" transform="translate(308.6875 0)"/>
     <use xlink:href="#DejaVuSans-20" transform="translate(342.378906 0)"/>
     <use xlink:href="#DejaVuSans-73" transform="translate(374.166016 0)"/>
     <use xlink:href="#DejaVuSans-77" transform="translate(426.265625 0)"/>
     <use xlink:href="#DejaVuSans-65" transform="translate(508.052734 0)"/>
     <use xlink:href="#DejaVuSans-65" transform="translate(569.576172 0)"/>
     <use xlink:href="#DejaVuSans-70" transform="translate(631.099609 0)"/>
     <use xlink:href="#DejaVuSans-20" transform="translate(694.576172 0)"/>
     <use xlink:href="#DejaVuSans-6f" transform="translate(726.363281 0)"/>
     <use xlink:href="#DejaVuSans-75" transform="translate(787.544922 0)"/>
     <use xlink:href="#DejaVuSans-74" transform="translate(850.923828 0)"/>
     <use xlink:href="#DejaVuSans-72" transform="translate(890.132812 0)"/>
     <use xlink:href="#DejaVuSans-75" transform="translate(931.246094 0)"/>
     <use xlink:href="#DejaVuSans-6e" transform="translate(994.625 0)"/>
     <use xlink:href="#DejaVuSans-73" transform="translate(1058.003906 0)"/>
     <use xlink:href="#DejaVuSans-20" transform="translate(1110.103516 0)"/>
     <use xlink:href="#DejaVuSans-69" transform="translate(1141.890625 0)"/>
     <use xlink:href="#DejaVuSans-74" transform="translate(1169.673828 0)"/>
     <use xlink:href="#DejaVuSans-73" transform="translate(1208.882812 0)"/>
     <use xlink:href="#DejaVuSans-20" transform="translate(1260.982422 0)"/>
     <use xlink:href="#DejaVuSans-73" transform="translate(1292.769531 0)"/>
     <use xlink:href="#DejaVuSans-63" transform="translate(1344.869141 0)"/>
     <use xlink:href="#DejaVuSans-68" transform="translate(1399.849609 0)"/>
     <use xlink:href="#DejaVuSans-65" transform="translate(1463.228516 0)"/>
     <use xlink:href="#DejaVuSans-64" transform="translate(1524.751953 0)"/>
     <use xlink:href="#DejaVuSans-75" transform="translate(1588.228516 0)"/>
     <use xlink:href="#DejaVuSans-6c" transform="translate(1651.607422 0)"/>
     <use xlink:href="#DejaVuSans-65" transform="translate(1679.390625 0)"/>
    </g>
   </g>
  </g>
  <g id="axes_2">
   <g id="patch_5">
    <path d="M 45.062344 253.718125 
L 451.707344 253.718125 
L 451.707344 153.388125 
L 45.062344 153.388125 
L 45.062344 253.718125 
z
" style="fill: none"/>
   </g>
   <g id="matplotlib.axis_3">
    <g id="xtick_7">
     <g id="line2d_20">
      <path d="M 63.546207 253.718125 
L 63.546207 153.388125 
" clip-path="url(#p62267e5595)" style="fill: none; stroke: #b0b0b0; stroke-opacity: 0.3; stroke-width: 0.8; stroke-linecap: square"/>
     </g>
     <g id="line2d_21">
      <g>
       <use xlink:href="#m9a77bfc47b" x="63.546207" y="253.718125" style="stroke: #000000; stroke-width: 0.8"/>
      </g>
     </g>
     <g id="text_6">
      <!-- 0.0 -->
      <g transform="translate(54.799489 269.076406) scale(0.11 -0.11)">
       <defs>
        <path id="DejaVuSans-2e" d="M 684 794 
L 1344 794 
L 1344 0 
L 684 0 
L 684 794 
z
" transform="scale(0.015625)"/>
       </defs>
       <use xlink:href="#DejaVuSans-30"/>
       <use xlink:href="#DejaVuSans-2e" transform="translate(63.623047 0)"/>
       <use xlink:href="#DejaVuSans-30" transform="translate(95.410156 0)"/>
      </g>
     </g>
    </g>
    <g id="xtick_8">
     <g id="line2d_22">
      <path d="M 137.481662 253.718125 
L 137.481662 153.388125 
" clip-path="url(#p62267e5595)" style="fill: none; stroke: #b0b0b0; stroke-opacity: 0.3; stroke-width: 0.8; stroke-linecap: square"/>
     </g>
     <g id="line2d_23">
      <g>
       <use xlink:href="#m9a77bfc47b" x="137.481662" y="253.718125" style="stroke: #000000; stroke-width: 0.8"/>
      </g>
     </g>
     <g id="text_7">
      <!-- 0.2 -->
      <g transform="translate(128.734943 269.076406) scale(0.11 -0.11)">
       <defs>
        <path id="DejaVuSans-32" d="M 1228 531 
L 3431 531 
L 3431 0 
L 469 0 
L 469 531 
Q 828 903 1448 1529 
Q 2069 2156 2228 2338 
Q 2531 2678 2651 2914 
Q 2772 3150 2772 3378 
Q 2772 3750 2511 3984 
Q 2250 4219 1831 4219 
Q 1534 4219 1204 4116 
Q 875 4013 500 3803 
L 500 4441 
Q 881 4594 1212 4672 
Q 1544 4750 1819 4750 
Q 2544 4750 2975 4387 
Q 3406 4025 3406 3419 
Q 3406 3131 3298 2873 
Q 3191 2616 2906 2266 
Q 2828 2175 2409 1742 
Q 1991 1309 1228 531 
z
" transform="scale(0.015625)"/>
       </defs>
       <use xlink:href="#DejaVuSans-30"/>
       <use xlink:href="#DejaVuSans-2e" transform="translate(63.623047 0)"/>
       <use xlink:href="#DejaVuSans-32" transform="translate(95.410156 0)"/>
      </g>
     </g>
    </g>
    <g id="xtick_9">
     <g id="line2d_24">
      <path d="M 211.417116 253.718125 
L 211.417116 153.388125 
" clip-path="url(#p62267e5595)" style="fill: none; stroke: #b0b0b0; stroke-opacity: 0.3; stroke-width: 0.8; stroke-linecap: square"/>
     </g>
     <g id="line2d_25">
      <g>
       <use xlink:href="#m9a77bfc47b" x="211.417116" y="253.718125" style="stroke: #000000; stroke-width: 0.8"/>
      </g>
     </g>
     <g id="text_8">
      <!-- 0.4 -->
      <g transform="translate(202.670398 269.076406) scale(0.11 -0.11)">
       <defs>
        <path id="DejaVuSans-34" d="M 2419 4116 
L 825 1625 
L 2419 1625 
L 2419 4116 
z
M 2253 4666 
L 3047 4666 
L 3047 1625 
L 3713 1625 
L 3713 1100 
L 3047 1100 
L 3047 0 
L 2419 0 
L 2419 1100 
L 313 1100 
L 313 1709 
L 2253 4666 
z
" transform="scale(0.015625)"/>
       </defs>
       <use xlink:href="#DejaVuSans-30"/>
       <use xlink:href="#DejaVuSans-2e" transform="translate(63.623047 0)"/>
       <use xlink:href="#DejaVuSans-34" transform="translate(95.410156 0)"/>
      </g>
     </g>
    </g>
    <g id="xtick_10">
     <g id="line2d_26">
      <path d="M 285.352571 253.718125 
L 285.352571 153.388125 
" clip-path="url(#p62267e5595)" style="fill: none; stroke: #b0b0b0; stroke-opacity: 0.3; stroke-width: 0.8; stroke-linecap: square"/>
     </g>
     <g id="line2d_27">
      <g>
       <use xlink:href="#m9a77bfc47b" x="285.352571" y="253.718125" style="stroke: #000000; stroke-width: 0.8"/>
      </g>
     </g>
     <g id="text_9">
      <!-- 0.6 -->
      <g transform="translate(276.605852 269.076406) scale(0.11 -0.11)">
       <defs>
        <path id="DejaVuSans-36" d="M 2113 2584 
Q 1688 2584 1439 2293 
Q 1191 2003 1191 1497 
Q 1191 994 1439 701 
Q 1688 409 2113 409 
Q 2538 409 2786 701 
Q 3034 994 3034 1497 
Q 3034 2003 2786 2293 
Q 2538 2584 2113 2584 
z
M 3366 4563 
L 3366 3988 
Q 3128 4100 2886 4159 
Q 2644 4219 2406 4219 
Q 1781 4219 1451 3797 
Q 1122 3375 1075 2522 
Q 1259 2794 1537 2939 
Q 1816 3084 2150 3084 
Q 2853 3084 3261 2657 
Q 3669 2231 3669 1497 
Q 3669 778 3244 343 
Q 2819 -91 2113 -91 
Q 1303 -91 875 529 
Q 447 1150 447 2328 
Q 447 3434 972 4092 
Q 1497 4750 2381 4750 
Q 2619 4750 2861 4703 
Q 3103 4656 3366 4563 
z
" transform="scale(0.015625)"/>
       </defs>
       <use xlink:href="#DejaVuSans-30"/>
       <use xlink:href="#DejaVuSans-2e" transform="translate(63.623047 0)"/>
       <use xlink:href="#DejaVuSans-36" transform="translate(95.410156 0)"/>
      </g>
     </g>
    </g>
    <g id="xtick_11">
     <g id="line2d_28">
      <path d="M 359.288026 253.718125 
L 359.288026 153.388125 
" clip-path="url(#p62267e5595)" style="fill: none; stroke: #b0b0b0; stroke-opacity: 0.3; stroke-width: 0.8; stroke-linecap: square"/>
     </g>
     <g id="line2d_29">
      <g>
       <use xlink:href="#m9a77bfc47b" x="359.288026" y="253.718125" style="stroke: #000000; stroke-width: 0.8"/>
      </g>
     </g>
     <g id="text_10">
      <!-- 0.8 -->
      <g transform="translate(350.541307 269.076406) scale(0.11 -0.11)">
       <defs>
        <path id="DejaVuSans-38" d="M 2034 2216 
Q 1584 2216 1326 1975 
Q 1069 1734 1069 1313 
Q 1069 891 1326 650 
Q 1584 409 2034 409 
Q 2484 409 2743 651 
Q 3003 894 3003 1313 
Q 3003 1734 2745 1975 
Q 2488 2216 2034 2216 
z
M 1403 2484 
Q 997 2584 770 2862 
Q 544 3141 544 3541 
Q 544 4100 942 4425 
Q 1341 4750 2034 4750 
Q 2731 4750 3128 4425 
Q 3525 4100 3525 3541 
Q 3525 3141 3298 2862 
Q 3072 2584 2669 2484 
Q 3125 2378 3379 2068 
Q 3634 1759 3634 1313 
Q 3634 634 3220 271 
Q 2806 -91 2034 -91 
Q 1263 -91 848 271 
Q 434 634 434 1313 
Q 434 1759 690 2068 
Q 947 2378 1403 2484 
z
M 1172 3481 
Q 1172 3119 1398 2916 
Q 1625 2713 2034 2713 
Q 2441 2713 2670 2916 
Q 2900 3119 2900 3481 
Q 2900 3844 2670 4047 
Q 2441 4250 2034 4250 
Q 1625 4250 1398 4047 
Q 1172 3844 1172 3481 
z
" transform="scale(0.015625)"/>
       </defs>
       <use xlink:href="#DejaVuSans-30"/>
       <use xlink:href="#DejaVuSans-2e" transform="translate(63.623047 0)"/>
       <use xlink:href="#DejaVuSans-38" transform="translate(95.410156 0)"/>
      </g>
     </g>
    </g>
    <g id="xtick_12">
     <g id="line2d_30">
      <path d="M 433.22348 253.718125 
L 433.22348 153.388125 
" clip-path="url(#p62267e5595)" style="fill: none; stroke: #b0b0b0; stroke-opacity: 0.3; stroke-width: 0.8; stroke-linecap: square"/>
     </g>
     <g id="line2d_31">
      <g>
       <use xlink:href="#m9a77bfc47b" x="433.22348" y="253.718125" style="stroke: #000000; stroke-width: 0.8"/>
      </g>
     </g>
     <g id="text_11">
      <!-- 1.0 -->
      <g transform="translate(424.476761 269.076406) scale(0.11 -0.11)">
       <use xlink:href="#DejaVuSans-31"/>
       <use xlink:href="#DejaVuSans-2e" transform="translate(63.623047 0)"/>
       <use xlink:href="#DejaVuSans-30" transform="translate(95.410156 0)"/>
      </g>
     </g>
    </g>
    <g id="text_12">
     <!-- time $t$ -->
     <g transform="translate(232.049844 283.722344) scale(0.11 -0.11)">
      <defs>
       <path id="DejaVuSans-Oblique-74" d="M 2706 3500 
L 2619 3053 
L 1472 3053 
L 1100 1153 
Q 1081 1047 1072 975 
Q 1063 903 1063 863 
Q 1063 663 1183 572 
Q 1303 481 1569 481 
L 2150 481 
L 2053 0 
L 1503 0 
Q 991 0 739 200 
Q 488 400 488 806 
Q 488 878 497 964 
Q 506 1050 525 1153 
L 897 3053 
L 409 3053 
L 500 3500 
L 978 3500 
L 1172 4494 
L 1747 4494 
L 1556 3500 
L 2706 3500 
z
" transform="scale(0.015625)"/>
      </defs>
      <use xlink:href="#DejaVuSans-74" transform="translate(0 0.015625)"/>
      <use xlink:href="#DejaVuSans-69" transform="translate(39.208984 0.015625)"/>
      <use xlink:href="#DejaVuSans-6d" transform="translate(66.992188 0.015625)"/>
      <use xlink:href="#DejaVuSans-65" transform="translate(164.404297 0.015625)"/>
      <use xlink:href="#DejaVuSans-20" transform="translate(225.927734 0.015625)"/>
      <use xlink:href="#DejaVuSans-Oblique-74" transform="translate(257.714844 0.015625)"/>
     </g>
    </g>
   </g>
   <g id="matplotlib.axis_4">
    <g id="ytick_4">
     <g id="line2d_32">
      <path d="M 45.062344 249.157672 
L 451.707344 249.157672 
" clip-path="url(#p62267e5595)" style="fill: none; stroke: #b0b0b0; stroke-opacity: 0.3; stroke-width: 0.8; stroke-linecap: square"/>
     </g>
     <g id="line2d_33">
      <g>
       <use xlink:href="#mbf44ede9a3" x="45.062344" y="249.157672" style="stroke: #000000; stroke-width: 0.8"/>
      </g>
     </g>
     <g id="text_13">
      <!-- −1 -->
      <g transform="translate(21.845938 253.336813) scale(0.11 -0.11)">
       <use xlink:href="#DejaVuSans-2212"/>
       <use xlink:href="#DejaVuSans-31" transform="translate(83.789062 0)"/>
      </g>
     </g>
    </g>
    <g id="ytick_5">
     <g id="line2d_34">
      <path d="M 45.062344 203.553087 
L 451.707344 203.553087 
" clip-path="url(#p62267e5595)" style="fill: none; stroke: #b0b0b0; stroke-opacity: 0.3; stroke-width: 0.8; stroke-linecap: square"/>
     </g>
     <g id="line2d_35">
      <g>
       <use xlink:href="#mbf44ede9a3" x="45.062344" y="203.553087" style="stroke: #000000; stroke-width: 0.8"/>
      </g>
     </g>
     <g id="text_14">
      <!-- 0 -->
      <g transform="translate(31.063594 207.732227) scale(0.11 -0.11)">
       <use xlink:href="#DejaVuSans-30"/>
      </g>
     </g>
    </g>
    <g id="ytick_6">
     <g id="line2d_36">
      <path d="M 45.062344 157.948501 
L 451.707344 157.948501 
" clip-path="url(#p62267e5595)" style="fill: none; stroke: #b0b0b0; stroke-opacity: 0.3; stroke-width: 0.8; stroke-linecap: square"/>
     </g>
     <g id="line2d_37">
      <g>
       <use xlink:href="#mbf44ede9a3" x="45.062344" y="157.948501" style="stroke: #000000; stroke-width: 0.8"/>
      </g>
     </g>
     <g id="text_15">
      <!-- 1 -->
      <g transform="translate(31.063594 162.127642) scale(0.11 -0.11)">
       <use xlink:href="#DejaVuSans-31"/>
      </g>
     </g>
    </g>
    <g id="text_16">
     <!-- amplitude -->
     <g transform="translate(15.558281 231.346172) rotate(-90) scale(0.11 -0.11)">
      <use xlink:href="#DejaVuSans-61"/>
      <use xlink:href="#DejaVuSans-6d" transform="translate(61.279297 0)"/>
      <use xlink:href="#DejaVuSans-70" transform="translate(158.691406 0)"/>
      <use xlink:href="#DejaVuSans-6c" transform="translate(222.167969 0)"/>
      <use xlink:href="#DejaVuSans-69" transform="translate(249.951172 0)"/>
      <use xlink:href="#DejaVuSans-74" transform="translate(277.734375 0)"/>
      <use xlink:href="#DejaVuSans-75" transform="translate(316.943359 0)"/>
      <use xlink:href="#DejaVuSans-64" transform="translate(380.322266 0)"/>
      <use xlink:href="#DejaVuSans-65" transform="translate(443.798828 0)"/>
     </g>
    </g>
   </g>
   <g id="line2d_38">
    <path d="M 63.546207 203.553087 
L 69.466965 198.82533 
L 76.497864 192.90971 
L 87.969331 182.901262 
L 96.480419 175.610133 
L 102.031129 171.148237 
L 106.471697 167.857846 
L 110.17217 165.367094 
L 113.502596 163.362762 
L 116.833021 161.620101 
L 119.7934 160.319603 
L 122.753779 159.278887 
L 125.34411 158.600424 
L 127.934441 158.15503 
L 130.524772 157.957522 
L 132.745056 157.996009 
L 134.96534 158.234717 
L 137.185624 158.680793 
L 139.405908 159.340465 
L 141.626192 160.218921 
L 143.846476 161.320182 
L 146.06676 162.646987 
L 148.657091 164.481679 
L 151.247422 166.624588 
L 153.837753 169.07213 
L 156.428085 171.817431 
L 159.388463 175.306061 
L 162.348842 179.148594 
L 165.679268 183.859508 
L 169.379741 189.516635 
L 173.450261 196.1555 
L 179.000971 205.66995 
L 188.992249 222.877632 
L 193.062769 229.385639 
L 196.393195 234.274706 
L 198.983527 237.726511 
L 201.573858 240.813107 
L 203.794142 243.129247 
L 206.014426 245.1089 
L 207.864662 246.480914 
L 209.714899 247.584176 
L 211.565135 248.404844 
L 213.045325 248.849602 
L 214.525514 249.100119 
L 216.005703 249.151678 
L 217.485893 249.000396 
L 218.966082 248.643274 
L 220.446271 248.078249 
L 221.92646 247.304248 
L 223.40665 246.321228 
L 225.256886 244.800196 
L 227.107123 242.958726 
L 228.957359 240.804083 
L 231.177643 237.819603 
L 233.397927 234.421991 
L 235.618211 230.640433 
L 238.208542 225.790703 
L 241.168921 219.752617 
L 244.869394 211.633005 
L 250.790151 197.949856 
L 256.340861 185.312309 
L 259.671287 178.286669 
L 262.261618 173.30176 
L 264.481902 169.4542 
L 266.702186 166.068057 
L 268.552423 163.6426 
L 270.402659 161.611754 
L 271.882849 160.290633 
L 273.363038 159.253535 
L 274.843227 158.511777 
L 276.323416 158.074849 
L 277.433558 157.951802 
L 278.5437 158.006909 
L 279.653842 158.241891 
L 280.763984 158.657761 
L 282.244174 159.494007 
L 283.724363 160.650807 
L 285.204552 162.124283 
L 286.684741 163.908059 
L 288.534978 166.560339 
L 290.385215 169.660411 
L 292.235451 173.179167 
L 294.455735 177.904452 
L 297.046066 184.018659 
L 300.006445 191.634664 
L 304.076965 202.791834 
L 310.737817 221.112166 
L 313.698196 228.581303 
L 315.91848 233.667632 
L 318.138764 238.18879 
L 319.989 241.4505 
L 321.469189 243.689621 
L 322.949379 245.572655 
L 324.429568 247.077681 
L 325.53971 247.946948 
L 326.649852 248.586247 
L 327.759994 248.990022 
L 328.870136 249.153908 
L 329.980278 249.074779 
L 331.09042 248.750796 
L 332.200562 248.181441 
L 333.310704 247.367554 
L 334.420846 246.311352 
L 335.901035 244.532596 
L 337.381224 242.342094 
L 338.861414 239.756729 
L 340.71165 236.002553 
L 342.561887 231.715844 
L 344.782171 225.955202 
L 347.372502 218.541228 
L 350.702928 208.260852 
L 358.473921 183.938658 
L 361.064253 176.694938 
L 363.284537 171.176533 
L 365.134773 167.182668 
L 366.614963 164.44168 
L 368.095152 162.144169 
L 369.575341 160.322071 
L 370.685483 159.283848 
L 371.795625 158.537572 
L 372.905767 158.090694 
L 374.015909 157.948728 
L 375.126051 158.115169 
L 376.236193 158.591433 
L 377.346335 159.376809 
L 378.456477 160.468416 
L 379.566619 161.861191 
L 381.046808 164.173849 
L 382.526997 166.98554 
L 384.007187 170.266279 
L 385.857423 174.970553 
L 387.70766 180.26525 
L 389.927944 187.258184 
L 392.888322 197.344166 
L 400.659316 224.277195 
L 402.8796 231.064187 
L 404.729836 236.102156 
L 406.580073 240.452755 
L 408.060262 243.367549 
L 409.540452 245.72866 
L 410.650594 247.112172 
L 411.760736 248.148224 
L 412.870878 248.825771 
L 413.610972 249.074112 
L 414.351067 249.15767 
L 415.091161 249.075315 
L 415.831256 248.826514 
L 416.571351 248.41135 
L 417.681493 247.478369 
L 418.791635 246.177776 
L 419.901777 244.517718 
L 421.011919 242.509493 
L 422.492108 239.315596 
L 423.972297 235.571166 
L 425.822534 230.195909 
L 428.042818 222.886864 
L 430.633149 213.483755 
L 433.22348 203.553087 
L 433.22348 203.553087 
" clip-path="url(#p62267e5595)" style="fill: none; stroke: #2b6cb0; stroke-linecap: square"/>
   </g>
   <g id="patch_6">
    <path d="M 45.062344 253.718125 
L 45.062344 153.388125 
" style="fill: none; stroke: #000000; stroke-width: 0.8; stroke-linejoin: miter; stroke-linecap: square"/>
   </g>
   <g id="patch_7">
    <path d="M 45.062344 253.718125 
L 451.707344 253.718125 
" style="fill: none; stroke: #000000; stroke-width: 0.8; stroke-linejoin: miter; stroke-linecap: square"/>
   </g>
   <g id="text_17">
    <!-- correct: linear chirp -->
    <g transform="translate(189.527656 147.388125) scale(0.12 -0.12)">
     <use xlink:href="#DejaVuSans-63"/>
     <use xlink:href="#DejaVuSans-6f" transform="translate(54.980469 0)"/>
     <use xlink:href="#DejaVuSans-72" transform="translate(116.162109 0)"/>
     <use xlink:href="#DejaVuSans-72" transform="translate(155.525391 0)"/>
     <use xlink:href="#DejaVuSans-65" transform="translate(194.388672 0)"/>
     <use xlink:href="#DejaVuSans-63" transform="translate(255.912109 0)"/>
     <use xlink:href="#DejaVuSans-74" transform="translate(310.892578 0)"/>
     <use xlink:href="#DejaVuSans-3a" transform="translate(350.101562 0)"/>
     <use xlink:href="#DejaVuSans-20" transform="translate(383.792969 0)"/>
     <use xlink:href="#DejaVuSans-6c" transform="translate(415.580078 0)"/>
     <use xlink:href="#DejaVuSans-69" transform="translate(443.363281 0)"/>
     <use xlink:href="#DejaVuSans-6e" transform="translate(471.146484 0)"/>
     <use xlink:href="#DejaVuSans-65" transform="translate(534.525391 0)"/>
     <use xlink:href="#DejaVuSans-61" transform="translate(596.048828 0)"/>
     <use xlink:href="#DejaVuSans-72" transform="translate(657.328125 0)"/>
     <use xlink:href="#DejaVuSans-20" transform="translate(698.441406 0)"/>
     <use xlink:href="#DejaVuSans-63" transform="translate(730.228516 0)"/>
     <use xlink:href="#DejaVuSans-68" transform="translate(785.208984 0)"/>
     <use xlink:href="#DejaVuSans-69" transform="translate(848.587891 0)"/>
     <use xlink:href="#DejaVuSans-72" transform="translate(876.371094 0)"/>
     <use xlink:href="#DejaVuSans-70" transform="translate(917.484375 0)"/>
    </g>
   </g>
  </g>
 </g>
 <defs>
  <clipPath id="pa758372c78">
   <rect x="45.062344" y="22.318125" width="406.645" height="100.33"/>
  </clipPath>
  <clipPath id="p62267e5595">
   <rect x="45.062344" y="153.388125" width="406.645" height="100.33"/>
  </clipPath>
 </defs>
</svg>
